<?xml version="1.0" standalone="no"?>
<!DOCTYPE svg PUBLIC "-//W3C//DTD SVG 20010904//EN"
 "http://www.w3.org/TR/2001/REC-SVG-20010904/DTD/svg10.dtd">
<svg version="1.0" xmlns="http://www.w3.org/2000/svg"
 width="700.000000pt" height="700.000000pt" viewBox="0 0 700.000000 700.000000"
 preserveAspectRatio="xMidYMid meet">
<metadata>
Created by potrace 1.11, written by Peter Selinger 2001-2013
</metadata>
<g transform="translate(0.000000,700.000000) scale(0.100000,-0.100000)"
fill="#000000" stroke="none">
<path d="M150 6982 c-46 -22 -111 -88 -133 -134 -16 -34 -17 -224 -15 -3360
l3 -3323 33 -48 c18 -26 56 -63 85 -82 l52 -35 3325 0 3325 0 52 35 c29 19 67
56 85 82 l33 48 0 3335 0 3335 -33 47 c-18 26 -54 62 -80 80 l-47 33 -3325 2
c-3125 2 -3327 2 -3360 -15z m6300 -3482 l0 -2950 -2950 0 -2950 0 0 2950 0
2950 2950 0 2950 0 0 -2950z"/>
<path d="M2875 5917 c-113 -45 -146 -85 -210 -260 -19 -51 -52 -141 -75 -202
-52 -137 -92 -244 -135 -360 -19 -49 -52 -139 -75 -200 -52 -137 -92 -244
-135 -360 -19 -49 -52 -139 -75 -200 -52 -137 -92 -244 -135 -360 -19 -49 -52
-139 -75 -200 -52 -137 -92 -244 -135 -360 -19 -49 -52 -139 -75 -200 -52
-137 -92 -244 -135 -360 -19 -49 -52 -139 -75 -200 -52 -137 -92 -244 -135
-360 -19 -49 -52 -139 -75 -200 -86 -228 -149 -396 -214 -574 -58 -156 -60
-209 -15 -300 33 -65 67 -98 139 -130 45 -20 56 -21 2261 -21 l2216 0 62 31
c67 33 98 68 132 144 20 45 21 60 16 185 -18 390 -175 758 -477 1115 -41 49
-211 217 -270 267 -106 90 -286 221 -381 278 -14 8 -67 40 -118 70 l-93 55
569 5 c630 6 597 2 680 74 23 20 53 61 67 91 23 47 26 67 26 157 -1 266 -87
620 -207 853 -8 17 -27 53 -41 80 -32 63 -109 191 -136 227 -12 14 -34 46 -51
69 -36 51 -141 175 -204 242 -60 62 -237 218 -304 267 -28 21 -70 52 -92 68
-73 54 -259 164 -377 223 -382 191 -779 302 -1257 349 -136 13 -348 12 -386
-3z m405 -557 c325 -38 583 -107 875 -233 152 -66 404 -211 471 -272 7 -5 36
-28 65 -50 29 -22 103 -89 165 -150 238 -235 398 -500 469 -780 l22 -90 -1390
-3 c-765 -1 -1392 -1 -1394 1 -3 4 27 89 102 287 26 69 60 161 77 205 68 182
88 236 133 355 26 69 60 161 77 205 69 185 88 236 131 350 71 189 69 185 92
185 11 0 59 -4 105 -10z m-580 -2166 c212 -23 398 -52 565 -90 344 -77 667
-187 935 -317 69 -33 149 -76 178 -94 29 -18 55 -33 58 -33 15 0 248 -163 341
-238 153 -126 340 -330 396 -435 7 -12 24 -40 38 -62 32 -50 92 -185 113 -254
l15 -51 -1795 0 c-1224 0 -1794 3 -1794 10 0 6 11 38 25 71 14 33 42 103 61
157 20 53 49 133 66 177 16 44 42 114 58 155 15 41 49 131 75 200 26 69 60
161 77 205 70 188 88 237 133 355 26 69 59 158 73 199 l26 74 111 -7 c60 -4
171 -14 245 -22z"/>
</g>
</svg>
